<?xml version="1.0" encoding="UTF-8" standalone="no"?>
<!DOCTYPE svg PUBLIC "-//W3C//DTD SVG 1.1//EN"
 "http://www.w3.org/Graphics/SVG/1.1/DTD/svg11.dtd">
<!-- Generated by graphviz version 2.26.3 (20100126.1600)
 -->
<!-- Title: G Pages: 1 -->
<svg width="288pt" height="228pt"
 viewBox="0.00 0.00 288.00 228.00" xmlns="http://www.w3.org/2000/svg" xmlns:xlink="http://www.w3.org/1999/xlink">
<g id="graph1" class="graph" transform="scale(1 1) rotate(0) translate(4 224)">
<title>G</title>
<polygon fill="white" stroke="white" points="-4,5 -4,-224 285,-224 285,5 -4,5"/>
<g id="graph2" class="cluster"><title>cluster_Global</title>
<polyline fill="none" stroke="gray" points="20,-8 260,-8 "/>
<path fill="none" stroke="gray" d="M260,-8C266,-8 272,-14 272,-20"/>
<polyline fill="none" stroke="gray" points="272,-20 272,-200 "/>
<path fill="none" stroke="gray" d="M272,-200C272,-206 266,-212 260,-212"/>
<polyline fill="none" stroke="gray" points="260,-212 20,-212 "/>
<path fill="none" stroke="gray" d="M20,-212C14,-212 8,-206 8,-200"/>
<polyline fill="none" stroke="gray" points="8,-200 8,-20 "/>
<path fill="none" stroke="gray" d="M8,-20C8,-14 14,-8 20,-8"/>
<text text-anchor="middle" x="140" y="-198.1" font-family="Times Roman,serif" font-size="11.00" fill="gray">\</text>
</g>
<g id="graph3" class="cluster"><title>cluster_\Phine</title>
<polyline fill="none" stroke="gray" points="28,-16 252,-16 "/>
<path fill="none" stroke="gray" d="M252,-16C258,-16 264,-22 264,-28"/>
<polyline fill="none" stroke="gray" points="264,-28 264,-170 "/>
<path fill="none" stroke="gray" d="M264,-170C264,-176 258,-182 252,-182"/>
<polyline fill="none" stroke="gray" points="252,-182 28,-182 "/>
<path fill="none" stroke="gray" d="M28,-182C22,-182 16,-176 16,-170"/>
<polyline fill="none" stroke="gray" points="16,-170 16,-28 "/>
<path fill="none" stroke="gray" d="M16,-28C16,-22 22,-16 28,-16"/>
<text text-anchor="middle" x="140" y="-168.1" font-family="Times Roman,serif" font-size="11.00" fill="gray">Phine</text>
</g>
<g id="graph4" class="cluster"><title>cluster_\Phine\PSR4</title>
<polyline fill="none" stroke="gray" points="36,-24 244,-24 "/>
<path fill="none" stroke="gray" d="M244,-24C250,-24 256,-30 256,-36"/>
<polyline fill="none" stroke="gray" points="256,-36 256,-140 "/>
<path fill="none" stroke="gray" d="M256,-140C256,-146 250,-152 244,-152"/>
<polyline fill="none" stroke="gray" points="244,-152 36,-152 "/>
<path fill="none" stroke="gray" d="M36,-152C30,-152 24,-146 24,-140"/>
<polyline fill="none" stroke="gray" points="24,-140 24,-36 "/>
<path fill="none" stroke="gray" d="M24,-36C24,-30 30,-24 36,-24"/>
<text text-anchor="middle" x="140" y="-138.1" font-family="Times Roman,serif" font-size="11.00" fill="gray">PSR4</text>
</g>
<!-- \\Phine\\PSR4\\DebugLoader -->
<g id="node4" class="node"><title>\\Phine\\PSR4\\DebugLoader</title>
<polygon fill="none" stroke="black" points="247,-122 159,-122 159,-86 247,-86 247,-122"/>
<text text-anchor="middle" x="203" y="-101.1" font-family="Times Roman,serif" font-size="11.00">DebugLoader</text>
</g>
<!-- \\Phine\\PSR4\\Loader -->
<g id="node5" class="node"><title>\\Phine\\PSR4\\Loader</title>
<polygon fill="none" stroke="black" points="86,-95 32,-95 32,-59 86,-59 86,-95"/>
<text text-anchor="middle" x="59" y="-74.1" font-family="Times Roman,serif" font-size="11.00">Loader</text>
</g>
<!-- \\Phine\\PSR4\\DebugLoader&#45;&gt;\\Phine\\PSR4\\Loader -->
<g id="edge5" class="edge"><title>\\Phine\\PSR4\\DebugLoader&#45;&gt;\\Phine\\PSR4\\Loader</title>
<path fill="none" stroke="black" d="M158.227,-95.605C138.304,-91.8694 115.119,-87.5223 96.1723,-83.9698"/>
<polygon fill="none" stroke="black" points="96.604,-80.4898 86.1302,-82.0869 95.3139,-87.3699 96.604,-80.4898"/>
</g>
<!-- \\Phine\\PSR4\\APCLoader -->
<g id="node6" class="node"><title>\\Phine\\PSR4\\APCLoader</title>
<polygon fill="none" stroke="black" points="241,-68 165,-68 165,-32 241,-32 241,-68"/>
<text text-anchor="middle" x="203" y="-47.1" font-family="Times Roman,serif" font-size="11.00">APCLoader</text>
</g>
<!-- \\Phine\\PSR4\\APCLoader&#45;&gt;\\Phine\\PSR4\\Loader -->
<g id="edge7" class="edge"><title>\\Phine\\PSR4\\APCLoader&#45;&gt;\\Phine\\PSR4\\Loader</title>
<path fill="none" stroke="black" d="M164.789,-57.1646C143.594,-61.1387 117.347,-66.06 96.2993,-70.0064"/>
<polygon fill="none" stroke="black" points="95.6132,-66.5739 86.4296,-71.857 96.9033,-73.454 95.6132,-66.5739"/>
</g>
</g>
</svg>
